<?xml version="1.0" encoding="UTF-8" standalone="no"?>
<svg
   xmlns:dc="http://purl.org/dc/elements/1.1/"
   xmlns:cc="http://creativecommons.org/ns#"
   xmlns:rdf="http://www.w3.org/1999/02/22-rdf-syntax-ns#"
   xmlns:svg="http://www.w3.org/2000/svg"
   xmlns="http://www.w3.org/2000/svg"
   xmlns:sodipodi="http://sodipodi.sourceforge.net/DTD/sodipodi-0.dtd"
   xmlns:inkscape="http://www.inkscape.org/namespaces/inkscape"
   width="576.4187pt"
   height="560.05896pt"
   version="1.1"
   viewBox="0 0 576.4187 560.05896"
   id="svg102"
   sodipodi:docname="cks.svg"
   inkscape:version="0.92.5 (2060ec1f9f, 2020-04-08)">
  <metadata
     id="metadata106">
    <rdf:RDF>
      <cc:Work
         rdf:about="">
        <dc:format>image/svg+xml</dc:format>
        <dc:type
           rdf:resource="http://purl.org/dc/dcmitype/StillImage" />
        <dc:title />
      </cc:Work>
    </rdf:RDF>
  </metadata>
  <sodipodi:namedview
     pagecolor="#ffffff"
     bordercolor="#666666"
     borderopacity="1"
     objecttolerance="10"
     gridtolerance="10"
     guidetolerance="10"
     inkscape:pageopacity="0"
     inkscape:pageshadow="2"
     inkscape:window-width="1366"
     inkscape:window-height="710"
     id="namedview104"
     showgrid="false"
     inkscape:zoom="0.25285714"
     inkscape:cx="1176.5537"
     inkscape:cy="466.66667"
     inkscape:window-x="0"
     inkscape:window-y="0"
     inkscape:window-maximized="1"
     inkscape:current-layer="svg102" />
  <defs
     id="defs50" />
  <path
     inkscape:connector-curvature="0"
     id="path52"
     d="m 557.17684,447.987 c -6.0078,-6.0039 -13.133,-10.781 -20.973,-14.055 13.766,-15.227 19.605,-36.016 15.781,-56.184 -3.8203,-20.164 -16.863,-37.375 -35.242,-46.508 -18.379,-9.1367 -39.977,-9.1367 -58.355,-0.004 -18.379,9.1289 -31.426,26.34 -35.25,46.504 l -105.95,-105.94 84.117,-84.113 60.898,60.898 29,-29 -60.898,-60.898 34.801,-34.801 49.293,49.293 29,-29 -49.293,-49.293 65.898,-65.898 L 530.99584,0 288.22584,242.77 45.395843,0 l -28.969,29 65.898,65.898 -49.293,49.293 29,29 49.292997,-49.293 34.801,34.801 -60.897997,60.898 28.999997,29 60.898,-60.898 84.07,84.102 -105.96,105.96 c -3.7617,-20.23 -16.801,-37.523 -35.211,-46.715 -18.413997,-9.1875 -40.073997,-9.2031 -58.499997,-0.0469 -18.43,9.1602 -31.492,26.434 -35.285,46.66 -3.7969,20.227 2.1211,41.062 15.977,56.277 -20.152,8.457 -34.7700002,26.398 -38.9840002,47.844 -4.2148,21.449 2.5234,43.586 17.9770002,59.043 15.453,15.457 37.59,22.207 59.039,17.996 21.445,-4.207 39.390997,-18.82 47.854997,-38.973 15.223,13.789 36.027,19.648 56.207,15.832 20.184,-3.8203 37.41,-16.871 46.543,-35.27 9.1367,-18.395 9.125,-40.008 -0.0312,-58.395 -9.1602,-18.383 -26.398,-31.418 -46.586,-35.211 l 105.96,-105.96 105.96,105.96 c -20.199,3.7773 -37.461,16.809 -46.629,35.203 -9.168,18.391 -9.1836,40.02 -0.043,58.422 9.1445,18.406 26.387,31.461 46.582,35.27 20.195,3.8047 41.008,-2.0781 56.223,-15.891 7.5859,18.102 22.879,31.859 41.684,37.492 18.801,5.6328 39.141,2.5547 55.43,-8.3945 16.293,-10.949 26.824,-28.617 28.711,-48.156 1.8867,-19.539 -5.0742,-38.895 -18.973,-52.758 z M 65.636843,366.799 c 7.2109,-7.2109 17.367,-10.656 27.48,-9.3242 10.112997,1.3359 19.026997,7.293 24.124997,16.129 5.1016,8.832 5.8008,19.535 1.8945,28.957 -3.9063,9.422 -11.969,16.492 -21.819997,19.133 -9.8555,2.6367 -20.371,0.54297 -28.465,-5.668 -8.0898,-6.2109 -12.832,-15.832 -12.828,-26.031 -0.008,-8.7031 3.4492,-17.047 9.6133,-23.195 z m 23.195,150.79 h -0.004 c -6.25,5.957 -14.559,9.2812 -23.195,9.2812 -8.6406,0 -16.945,-3.3242 -23.199,-9.2812 -6.152296,-6.1523 -9.609396,-14.496 -9.609396,-23.199 0,-8.6992 3.457,-17.043 9.609396,-23.195 6.1523,-6.1523 14.496,-9.6094 23.199,-9.6094 8.6992,0 17.043,3.457 23.195,9.6094 6.1523,6.1523 9.6094,14.496 9.6094,23.195 0,8.7031 -3.457,17.047 -9.6094,23.199 z M 193.23184,494.394 c -6.1562,6.1523 -14.5,9.6094 -23.199,9.6094 -8.6992,0 -17.047,-3.457 -23.199,-9.6094 -6.1523,-6.1523 -9.6055,-14.496 -9.6055,-23.199 0,-8.6992 3.4531,-17.043 9.6055,-23.195 6.1524,-6.152 14.5,-9.6094 23.199,-9.6094 8.6992,0 17.043,3.457 23.199,9.6094 6.1289,6.1641 9.5703,14.504 9.5625,23.199 -0.004,8.6953 -3.457,17.031 -9.5977,23.188 z m 271.16,-127.59 c 7.2148,-7.2109 17.371,-10.656 27.48,-9.3242 10.113,1.3359 19.031,7.293 24.129,16.129 5.0977,8.832 5.7969,19.535 1.8945,28.957 -3.9062,9.4219 -11.973,16.492 -21.824,19.133 -9.8516,2.6367 -20.371,0.54297 -28.461,-5.668 -8.0898,-6.2109 -12.832,-15.832 -12.832,-26.031 -0.008,-8.7031 3.4531,-17.047 9.6133,-23.195 z m -34.797,127.59 c -6.1562,6.1523 -14.5,9.6094 -23.199,9.6094 -8.699,0 -17.047,-3.457 -23.199,-9.6094 -6.1523,-6.1523 -9.6055,-14.496 -9.6055,-23.199 0,-8.6992 3.4531,-17.043 9.6055,-23.195 6.1523,-6.1523 14.5,-9.6094 23.199,-9.6094 8.699,0 17.043,3.457 23.199,9.6055 6.1367,6.1602 9.582,14.504 9.582,23.199 0,8.6992 -3.4453,17.039 -9.582,23.199 z m 104.36,23.195 c -6.2539,5.957 -14.559,9.2812 -23.199,9.2812 -8.6367,0 -16.945,-3.3242 -23.195,-9.2812 -6.1523,-6.1523 -9.6094,-14.496 -9.6094,-23.199 0,-8.6992 3.457,-17.043 9.6094,-23.195 6.1523,-6.1523 14.496,-9.6094 23.195,-9.6094 8.7031,0 17.047,3.457 23.199,9.6094 6.1523,6.1523 9.6094,14.496 9.6094,23.195 0,8.7031 -3.457,17.047 -9.6094,23.199 z" />
</svg>
