<svg id="svg" version="1.1" xmlns="http://www.w3.org/2000/svg" xmlns:xlink="http://www.w3.org/1999/xlink" width="400" height="94.0628637951106" viewBox="0, 0, 400,94.0628637951106"><g id="svgg"><path id="path0" d="M101.048 47.031 C 101.048 93.752,101.054 94.063,101.979 94.063 C 102.904 94.063,102.910 93.752,102.910 47.031 C 102.910 0.310,102.904 0.000,101.979 0.000 C 101.054 0.000,101.048 0.310,101.048 47.031 M3.835 16.420 L 1.870 18.421 6.056 22.587 L 10.242 26.754 7.110 29.911 L 3.977 33.067 5.944 35.034 L 7.911 37.000 11.072 33.863 L 14.234 30.726 16.299 32.830 L 18.364 34.934 14.429 38.889 L 10.494 42.844 12.463 44.813 L 14.432 46.781 18.396 42.838 L 22.359 38.895 27.590 44.126 L 32.820 49.356 26.314 55.874 L 19.808 62.393 18.914 60.493 C 16.867 56.145,10.180 54.507,6.362 57.419 C 3.009 59.977,1.856 64.552,3.669 68.108 L 4.544 69.824 3.036 70.974 C 1.037 72.499,0.000 74.811,0.000 77.742 C -0.000 85.664,9.530 89.166,14.789 83.176 C 16.230 81.535,16.346 81.491,17.576 82.119 C 25.617 86.228,33.579 77.366,28.645 69.800 C 28.043 68.876,26.710 67.706,25.684 67.198 L 23.818 66.275 30.302 59.802 L 36.787 53.330 43.282 59.812 L 49.776 66.295 48.001 67.090 C 42.299 69.642,41.666 78.238,46.924 81.702 C 49.905 83.666,52.329 83.686,56.810 81.785 C 57.273 81.588,57.762 81.935,58.261 82.814 C 60.360 86.516,67.379 87.127,70.929 83.917 C 74.876 80.348,74.135 72.964,69.574 70.412 C 68.885 70.026,68.892 69.854,69.661 68.406 C 70.978 65.924,70.768 61.966,69.194 59.586 C 65.580 54.126,56.886 54.887,54.365 60.883 L 53.741 62.368 47.247 55.862 L 40.754 49.356 45.984 44.126 L 51.215 38.895 55.068 42.729 L 58.922 46.563 60.892 44.594 L 62.861 42.624 59.036 38.779 L 55.210 34.934 57.275 32.830 L 59.340 30.726 62.502 33.863 L 65.663 37.000 67.630 35.034 L 69.596 33.067 66.464 29.910 L 63.331 26.753 67.288 22.817 C 71.857 18.271,71.777 18.511,69.512 16.191 L 67.778 14.416 52.282 29.906 L 36.787 45.396 21.293 29.907 L 5.799 14.418 3.835 16.420 M351.818 21.537 C 351.714 21.857,351.160 24.424,350.588 27.241 C 349.359 33.292,349.559 32.910,348.110 31.961 C 343.130 28.698,340.934 31.811,337.837 46.519 C 334.681 61.511,335.518 64.668,341.798 61.464 C 343.298 60.699,343.578 60.661,343.350 61.254 C 343.113 61.873,343.533 61.957,346.238 61.839 L 349.402 61.700 351.910 49.825 C 353.289 43.295,355.220 34.127,356.199 29.453 L 357.981 20.955 354.995 20.955 C 353.017 20.955,351.944 21.151,351.818 21.537 M361.332 23.632 C 361.029 25.105,360.681 26.477,360.559 26.681 C 360.437 26.885,361.755 26.990,363.489 26.914 C 366.962 26.761,366.794 26.934,367.585 22.701 L 367.912 20.955 364.897 20.955 L 361.882 20.955 361.332 23.632 M234.226 21.669 C 234.226 21.805,232.340 30.843,230.035 41.753 C 227.730 52.663,225.844 61.667,225.844 61.761 C 225.844 62.101,231.898 61.924,231.914 61.583 C 231.924 61.391,232.431 58.956,233.042 56.172 C 234.638 48.895,235.157 48.857,235.157 56.019 L 235.157 61.932 238.184 61.932 C 241.017 61.932,241.210 61.866,241.193 60.885 C 241.184 60.308,240.986 55.789,240.754 50.842 L 240.333 41.848 243.333 36.994 C 246.941 31.157,246.910 31.664,243.655 31.666 L 240.978 31.667 239.126 34.959 C 236.724 39.230,236.692 38.886,238.641 29.776 C 239.542 25.565,240.279 21.962,240.279 21.770 C 240.279 21.578,238.917 21.420,237.253 21.420 C 235.588 21.420,234.226 21.532,234.226 21.669 M311.519 26.892 C 310.549 31.725,310.611 31.602,309.069 31.755 C 307.747 31.886,307.588 32.093,307.084 34.342 L 306.536 36.787 307.866 36.787 C 309.509 36.787,309.557 35.957,307.299 46.655 C 304.528 59.785,305.113 62.398,310.825 62.398 C 313.655 62.398,313.788 62.273,314.585 58.844 L 315.154 56.396 313.689 56.254 C 311.618 56.053,311.616 55.249,313.657 45.317 L 315.409 36.787 317.373 36.787 C 319.278 36.787,319.347 36.734,319.647 35.041 C 319.817 34.080,320.064 32.928,320.196 32.480 C 320.396 31.798,320.126 31.665,318.541 31.665 C 317.500 31.665,316.655 31.508,316.664 31.315 C 316.673 31.123,316.980 29.604,317.346 27.939 C 317.712 26.275,318.019 24.756,318.028 24.563 C 318.037 24.371,316.697 24.214,315.050 24.214 L 312.057 24.214 311.519 26.892 M144.458 32.159 C 140.981 33.926,140.001 36.270,137.335 49.196 C 135.152 59.781,136.095 62.398,142.092 62.398 C 147.684 62.398,149.153 60.731,151.653 51.549 C 151.859 50.794,151.572 50.726,148.730 50.851 L 145.579 50.990 144.943 53.859 C 144.312 56.707,143.326 57.832,142.332 56.837 C 141.733 56.238,145.514 38.228,146.433 37.305 C 147.203 36.531,148.744 36.994,148.398 37.895 C 148.264 38.245,148.009 39.500,147.831 40.686 L 147.508 42.841 150.554 42.841 L 153.600 42.841 153.953 40.163 C 154.561 35.558,154.375 34.023,153.048 32.696 C 151.338 30.987,147.265 30.732,144.458 32.159 M167.181 31.719 C 166.546 31.972,165.627 32.535,165.140 32.970 C 164.293 33.725,164.268 33.713,164.580 32.712 C 164.895 31.700,164.804 31.665,161.879 31.665 C 159.402 31.665,158.806 31.813,158.601 32.480 C 158.463 32.928,157.081 39.371,155.530 46.799 C 153.978 54.226,152.596 60.669,152.458 61.118 C 152.237 61.836,152.566 61.932,155.234 61.932 C 157.710 61.932,158.307 61.784,158.513 61.118 C 158.651 60.669,159.613 56.217,160.650 51.222 C 163.327 38.333,163.643 37.718,167.582 37.718 C 169.036 37.718,169.163 37.525,169.732 34.459 C 169.899 33.562,170.138 32.462,170.264 32.014 C 170.528 31.078,169.125 30.943,167.181 31.719 M176.019 31.696 C 174.343 32.398,172.351 34.414,171.287 36.482 C 170.333 38.338,166.705 54.158,166.705 56.463 C 166.705 64.305,177.631 64.573,180.832 56.810 C 182.132 53.658,184.986 38.664,184.751 36.220 C 184.364 32.188,180.105 29.982,176.019 31.696 M194.412 31.533 C 187.807 33.138,185.966 41.972,190.891 48.428 C 193.612 51.996,194.015 53.325,193.065 55.598 C 191.782 58.669,188.804 57.279,189.660 54.009 C 189.882 53.158,189.664 53.085,186.918 53.085 L 183.935 53.085 183.937 55.763 C 183.940 60.663,185.954 62.615,190.694 62.313 C 197.728 61.866,201.843 53.093,197.786 47.190 C 197.111 46.206,195.918 44.480,195.136 43.353 C 193.541 41.055,193.377 39.719,194.439 37.666 C 195.413 35.782,196.742 36.021,196.736 38.079 L 196.731 39.581 199.646 39.581 L 202.561 39.581 202.561 36.989 C 202.561 32.273,199.581 30.278,194.412 31.533 M210.477 31.721 C 207.207 33.021,204.889 37.050,204.889 41.435 C 204.889 44.273,204.770 44.025,209.226 50.472 C 210.649 52.532,210.788 53.927,209.767 55.902 C 208.488 58.375,205.797 56.962,206.494 54.183 C 206.779 53.050,206.755 53.041,203.856 53.179 L 200.931 53.318 200.791 55.488 C 200.244 63.949,210.933 65.165,215.077 57.113 C 217.163 53.059,216.589 49.519,213.091 44.870 C 210.539 41.477,210.089 39.821,211.157 37.754 C 212.157 35.820,213.448 35.985,213.650 38.071 L 213.796 39.581 216.560 39.581 L 219.325 39.581 219.374 38.068 C 219.540 32.991,218.137 31.179,214.079 31.229 C 212.738 31.245,211.118 31.466,210.477 31.721 M252.620 31.906 C 249.020 33.852,247.798 36.419,245.643 46.566 C 243.510 56.609,243.546 59.063,245.859 61.130 C 250.412 65.198,257.993 60.423,259.184 52.736 L 259.490 50.757 256.711 50.757 L 253.932 50.757 253.370 53.265 C 252.710 56.215,251.400 57.731,250.300 56.817 C 249.409 56.078,249.415 55.385,250.342 51.279 L 251.091 47.963 255.658 47.963 L 260.226 47.963 260.751 45.518 C 262.565 37.070,262.519 34.459,260.522 32.583 C 259.000 31.154,254.696 30.785,252.620 31.906 M296.158 31.721 C 292.888 33.021,290.570 37.050,290.570 41.435 C 290.570 44.273,290.451 44.025,294.907 50.472 C 296.330 52.532,296.469 53.927,295.448 55.902 C 294.169 58.375,291.478 56.962,292.175 54.183 C 292.460 53.050,292.436 53.041,289.537 53.179 L 286.612 53.318 286.472 55.488 C 285.925 63.949,296.614 65.165,300.758 57.113 C 302.844 53.059,302.270 49.519,298.772 44.870 C 296.220 41.477,295.770 39.821,296.838 37.754 C 297.838 35.820,299.129 35.985,299.331 38.071 L 299.477 39.581 302.241 39.581 L 305.006 39.581 305.055 38.068 C 305.221 32.991,303.818 31.179,299.760 31.229 C 298.419 31.245,296.799 31.466,296.158 31.721 M332.204 31.518 C 331.329 31.691,330.976 32.920,328.729 43.617 C 326.217 55.572,325.363 57.765,323.818 56.220 C 323.593 55.995,327.861 34.335,328.546 32.226 C 328.696 31.764,328.014 31.655,325.638 31.760 L 322.534 31.898 319.820 44.703 C 316.991 58.048,316.856 59.813,318.536 61.493 C 319.754 62.711,321.294 62.632,323.334 61.248 C 324.942 60.157,325.029 60.145,325.029 61.015 C 325.029 61.831,325.355 61.932,327.982 61.932 L 330.936 61.932 333.817 48.312 C 335.402 40.821,336.824 33.906,336.978 32.945 L 337.258 31.199 335.218 31.262 C 334.096 31.297,332.740 31.412,332.204 31.518 M372.027 32.256 C 367.808 35.099,362.707 54.331,364.826 59.403 C 366.876 64.309,375.289 62.843,377.901 57.126 C 380.373 51.715,382.911 36.297,381.749 33.747 C 380.531 31.076,375.031 30.232,372.027 32.256 M390.687 31.721 C 384.600 34.141,383.506 41.860,388.324 48.402 C 391.100 52.173,391.379 53.039,390.496 55.153 C 389.224 58.196,386.962 57.730,386.962 54.425 L 386.962 52.619 384.168 52.619 L 381.374 52.619 381.374 55.436 C 381.374 61.383,385.491 63.997,390.953 61.517 C 397.265 58.650,398.553 50.812,393.688 44.874 C 391.209 41.849,390.622 40.156,391.407 38.290 C 392.501 35.688,394.772 35.889,394.109 38.529 C 393.857 39.535,393.970 39.581,396.681 39.581 C 399.924 39.581,400.356 38.991,399.854 35.246 C 399.376 31.684,395.007 30.003,390.687 31.721 M265.425 32.152 C 265.425 34.705,263.967 62.409,263.793 63.177 C 263.401 64.900,261.282 67.003,259.626 67.314 C 258.401 67.544,258.019 67.879,257.814 68.906 C 257.671 69.621,257.416 70.754,257.248 71.424 C 256.947 72.623,256.982 72.643,259.396 72.643 C 266.185 72.643,267.779 69.754,281.044 33.411 L 281.682 31.665 278.710 31.665 L 275.738 31.665 272.810 40.490 C 271.199 45.344,269.835 49.269,269.778 49.211 C 269.684 49.117,270.708 37.675,271.192 33.411 L 271.390 31.665 268.407 31.665 C 266.643 31.665,265.425 31.864,265.425 32.152 M359.486 32.014 C 359.486 32.206,358.126 38.754,356.465 46.566 C 354.804 54.377,353.442 61.030,353.439 61.350 C 353.436 61.755,354.329 61.932,356.370 61.932 L 359.305 61.932 362.272 47.846 C 363.904 40.099,365.332 33.289,365.445 32.712 C 365.641 31.711,365.514 31.665,362.569 31.665 C 360.874 31.665,359.487 31.822,359.486 32.014 M177.711 45.964 C 175.444 56.830,174.701 58.486,172.901 56.686 C 171.766 55.551,175.999 37.216,177.527 36.651 C 179.457 35.936,179.487 37.449,177.711 45.964 M256.117 37.026 C 256.587 37.592,256.585 38.281,256.110 40.519 L 255.519 43.306 253.762 43.306 L 252.005 43.306 252.604 40.729 C 253.448 37.099,254.904 35.564,256.117 37.026 M376.561 37.053 C 376.912 37.967,373.220 55.276,372.485 56.161 C 371.779 57.012,370.367 56.992,370.035 56.127 C 369.640 55.096,373.438 38.073,374.273 37.136 C 375.174 36.124,376.191 36.087,376.561 37.053 M348.104 37.383 C 349.011 39.746,343.999 57.365,342.655 56.535 C 341.904 56.071,344.787 40.009,346.053 37.602 C 346.553 36.651,347.774 36.521,348.104 37.383 M13.876 61.480 C 15.959 63.420,15.565 66.447,13.062 67.741 C 9.233 69.721,5.548 64.724,8.594 61.678 C 10.031 60.241,12.449 60.150,13.876 61.480 M64.301 61.132 C 67.422 63.528,66.013 68.172,62.165 68.172 C 58.724 68.172,56.950 64.079,59.350 61.678 C 60.607 60.422,63.028 60.155,64.301 61.132 M23.789 71.377 C 25.925 73.017,26.115 75.470,24.250 77.335 C 21.151 80.434,16.182 76.820,18.237 72.961 C 19.353 70.866,22.101 70.081,23.789 71.377 M54.316 71.884 C 56.791 74.012,55.270 78.696,52.105 78.696 C 50.808 78.696,48.598 77.482,48.252 76.580 C 46.663 72.438,51.029 69.057,54.316 71.884 M10.211 74.255 C 13.515 75.963,12.213 81.490,8.507 81.490 C 4.476 81.490,2.962 76.176,6.452 74.280 C 8.028 73.424,8.597 73.420,10.211 74.255 M67.485 74.779 C 70.294 77.144,68.699 81.490,65.022 81.490 C 60.892 81.490,59.723 75.567,63.546 74.017 C 65.155 73.365,65.998 73.528,67.485 74.779 " stroke="none" fill="#000000" fill-rule="evenodd"></path></g></svg>