<?xml version="1.0" encoding="UTF-8"?>
<svg width="700pt" height="700pt" version="1.1" viewBox="0 0 700 700" xmlns="http://www.w3.org/2000/svg" xmlns:xlink="http://www.w3.org/1999/xlink">
 <defs>
  <symbol id="p" overflow="visible">
   <path d="m27.484-1.6406c-1.418 0.73047-2.8984 1.2812-4.4375 1.6562-1.5312 0.375-3.1328 0.5625-4.7969 0.5625-4.9805 0-8.9297-1.3906-11.844-4.1719-2.9062-2.7812-4.3594-6.5547-4.3594-11.328 0-4.7812 1.4531-8.5625 4.3594-11.344 2.9141-2.7812 6.8633-4.1719 11.844-4.1719 1.6641 0 3.2656 0.1875 4.7969 0.5625 1.5391 0.375 3.0195 0.92969 4.4375 1.6562v6.1875c-1.4375-0.96875-2.8516-1.6797-4.2344-2.1406-1.3867-0.45703-2.8516-0.6875-4.3906-0.6875-2.75 0-4.9141 0.88672-6.4844 2.6562-1.5742 1.7617-2.3594 4.1875-2.3594 7.2812 0 3.0859 0.78516 5.5117 2.3594 7.2812 1.5703 1.7617 3.7344 2.6406 6.4844 2.6406 1.5391 0 3.0039-0.22656 4.3906-0.6875 1.3828-0.45703 2.7969-1.1719 4.2344-2.1406z"/>
  </symbol>
  <symbol id="e" overflow="visible">
   <path d="m20.109-16.328c-0.625-0.28906-1.25-0.50391-1.875-0.64062-0.625-0.14453-1.25-0.21875-1.875-0.21875-1.8438 0-3.2656 0.59375-4.2656 1.7812-0.99219 1.1797-1.4844 2.8711-1.4844 5.0781v10.328h-7.1719v-22.438h7.1719v3.6875c0.92578-1.4688 1.9844-2.5352 3.1719-3.2031 1.1953-0.67578 2.6289-1.0156 4.2969-1.0156 0.23828 0 0.5 0.011719 0.78125 0.03125 0.28125 0.023438 0.69141 0.0625 1.2344 0.125z"/>
  </symbol>
  <symbol id="b" overflow="visible">
   <path d="m25.828-11.281v2.0469h-16.75c0.16406 1.6875 0.76953 2.9531 1.8125 3.7969 1.0391 0.83594 2.5 1.25 4.375 1.25 1.5078 0 3.0508-0.22266 4.625-0.67188 1.582-0.44531 3.2109-1.125 4.8906-2.0312v5.5312c-1.6992 0.63672-3.3984 1.1172-5.0938 1.4375-1.6992 0.33203-3.3984 0.5-5.0938 0.5-4.0547 0-7.2031-1.0312-9.4531-3.0938s-3.375-4.9531-3.375-8.6719c0-3.6641 1.1016-6.5469 3.3125-8.6406 2.207-2.0938 5.25-3.1406 9.125-3.1406 3.5195 0 6.3359 1.0625 8.4531 3.1875 2.1133 2.1172 3.1719 4.9492 3.1719 8.5zm-7.3594-2.375c0-1.3633-0.40234-2.4609-1.2031-3.2969-0.79297-0.83203-1.8281-1.25-3.1094-1.25-1.3867 0-2.5156 0.39062-3.3906 1.1719-0.86719 0.78125-1.4023 1.9062-1.6094 3.375z"/>
  </symbol>
  <symbol id="d" overflow="visible">
   <path d="m13.5-10.094c-1.5 0-2.625 0.25781-3.375 0.76562-0.75 0.5-1.125 1.2461-1.125 2.2344 0 0.90625 0.30078 1.6211 0.90625 2.1406 0.60156 0.51172 1.4453 0.76562 2.5312 0.76562 1.3438 0 2.4727-0.48438 3.3906-1.4531 0.92578-0.96875 1.3906-2.1758 1.3906-3.625v-0.82812zm10.953-2.7031v12.797h-7.2344v-3.3281c-0.96094 1.3672-2.043 2.3594-3.25 2.9844-1.1992 0.61328-2.6562 0.92188-4.375 0.92188-2.3242 0-4.2109-0.67578-5.6562-2.0312-1.4492-1.3516-2.1719-3.1133-2.1719-5.2812 0-2.625 0.89844-4.5508 2.7031-5.7812 1.8125-1.2266 4.6562-1.8438 8.5312-1.8438h4.2188v-0.5625c0-1.1328-0.44922-1.9609-1.3438-2.4844-0.88672-0.53125-2.2773-0.79688-4.1719-0.79688-1.543 0-2.9766 0.15625-4.2969 0.46875-1.3242 0.30469-2.5547 0.76172-3.6875 1.375v-5.4688c1.5391-0.375 3.082-0.65625 4.625-0.84375 1.5508-0.19531 3.1016-0.29688 4.6562-0.29688 4.0391 0 6.957 0.79688 8.75 2.3906 1.8008 1.5938 2.7031 4.1875 2.7031 7.7812z"/>
  </symbol>
  <symbol id="a" overflow="visible">
   <path d="m11.281-28.797v6.3594h7.3906v5.1406h-7.3906v9.5c0 1.043 0.20312 1.75 0.60938 2.125 0.41406 0.36719 1.2383 0.54688 2.4688 0.54688h3.6875v5.125h-6.1562c-2.8242 0-4.8281-0.58594-6.0156-1.7656-1.1797-1.1875-1.7656-3.1953-1.7656-6.0312v-9.5h-3.5625v-5.1406h3.5625v-6.3594z"/>
  </symbol>
  <symbol id="h" overflow="visible">
   <path d="m18.703-19.141v-12.016h7.2188v31.156h-7.2188v-3.25c-0.99219 1.3242-2.0781 2.293-3.2656 2.9062s-2.5625 0.92188-4.125 0.92188c-2.7617 0-5.0312-1.0977-6.8125-3.2969-1.7734-2.1953-2.6562-5.0195-2.6562-8.4688 0-3.457 0.88281-6.2852 2.6562-8.4844 1.7812-2.1953 4.0508-3.2969 6.8125-3.2969 1.5508 0 2.9219 0.3125 4.1094 0.9375 1.1953 0.61719 2.2891 1.5781 3.2812 2.8906zm-4.7188 14.516c1.5312 0 2.6953-0.55469 3.5-1.6719 0.8125-1.125 1.2188-2.7539 1.2188-4.8906 0-2.1445-0.40625-3.7734-1.2188-4.8906-0.80469-1.125-1.9688-1.6875-3.5-1.6875-1.5234 0-2.6875 0.5625-3.5 1.6875-0.8125 1.1172-1.2188 2.7461-1.2188 4.8906 0 2.1367 0.40625 3.7656 1.2188 4.8906 0.8125 1.1172 1.9766 1.6719 3.5 1.6719z"/>
  </symbol>
  <symbol id="c" overflow="visible">
   <path d="m15.375-4.625c1.5391 0 2.7109-0.55469 3.5156-1.6719 0.8125-1.125 1.2188-2.7539 1.2188-4.8906 0-2.1445-0.40625-3.7734-1.2188-4.8906-0.80469-1.125-1.9766-1.6875-3.5156-1.6875-1.5312 0-2.7109 0.57031-3.5312 1.7031-0.82422 1.125-1.2344 2.75-1.2344 4.875 0 2.1172 0.41016 3.7422 1.2344 4.875 0.82031 1.125 2 1.6875 3.5312 1.6875zm-4.7656-14.516c0.98828-1.3125 2.082-2.2734 3.2812-2.8906 1.207-0.625 2.5938-0.9375 4.1562-0.9375 2.7578 0 5.0234 1.1016 6.7969 3.2969 1.7812 2.1992 2.6719 5.0273 2.6719 8.4844 0 3.4492-0.89062 6.2734-2.6719 8.4688-1.7734 2.1992-4.0391 3.2969-6.7969 3.2969-1.5625 0-2.9492-0.30859-4.1562-0.92188-1.1992-0.625-2.293-1.5938-3.2812-2.9062v3.25h-7.1719v-31.156h7.1719z"/>
  </symbol>
  <symbol id="g" overflow="visible">
   <path d="m0.5-22.438h7.1719l6.0312 15.234 5.125-15.234h7.1719l-9.4375 24.562c-0.94922 2.5-2.0547 4.2422-3.3125 5.2344-1.2617 1-2.9297 1.5-5 1.5h-4.1406v-4.7188h2.2344c1.2188 0 2.1016-0.19531 2.6562-0.57812 0.55078-0.38672 0.98438-1.0781 1.2969-2.0781l0.20312-0.625z"/>
  </symbol>
  <symbol id="f" overflow="visible">
   <path d="m1.4375-22.438h6.9688l3.7656 15.469 3.7969-15.469h5.9844l3.7656 15.312 3.7812-15.312h6.9688l-5.9062 22.438h-7.8281l-3.7812-15.422-3.7656 15.422h-7.8438z"/>
  </symbol>
  <symbol id="o" overflow="visible">
   <path d="m15.094-23.547-8.4375 12.516h8.4375zm-1.2812-6.3594h8.5781v18.875h4.2656v5.5781h-4.2656v5.4531h-7.2969v-5.4531h-13.25v-6.6094z"/>
  </symbol>
  <symbol id="n" overflow="visible">
   <path d="m3.4375-22.438h7.1719v22.438h-7.1719zm0-8.7188h7.1719v5.8438h-7.1719z"/>
  </symbol>
  <symbol id="m" overflow="visible">
   <path d="m18.203-31.156v4.7031h-3.9688c-1.0117 0-1.7188 0.18359-2.125 0.54688-0.39844 0.36719-0.59375 1-0.59375 1.9062v1.5625h6.125v5.1406h-6.125v17.297h-7.1719v-17.297h-3.5625v-5.1406h3.5625v-1.5625c0-2.4375 0.67969-4.2383 2.0469-5.4062 1.3633-1.1641 3.4727-1.75 6.3281-1.75z"/>
  </symbol>
  <symbol id="l" overflow="visible">
   <path d="m26-13.656v13.656h-7.2188v-10.422c0-1.957-0.042969-3.3008-0.125-4.0312-0.085938-0.73828-0.23438-1.2812-0.45312-1.625-0.28125-0.46875-0.66406-0.83203-1.1406-1.0938-0.48047-0.25781-1.0273-0.39062-1.6406-0.39062-1.5 0-2.6797 0.57812-3.5312 1.7344-0.85547 1.1562-1.2812 2.7578-1.2812 4.7969v11.031h-7.1719v-31.156h7.1719v12.016c1.082-1.3125 2.2266-2.2734 3.4375-2.8906 1.2188-0.625 2.5625-0.9375 4.0312-0.9375 2.5938 0 4.5625 0.79688 5.9062 2.3906 1.3438 1.5859 2.0156 3.8906 2.0156 6.9219z"/>
  </symbol>
  <symbol id="k" overflow="visible">
   <path d="m3.7656-29.906h8.6094l10.875 20.516v-20.516h7.3125v29.906h-8.6094l-10.875-20.516v20.516h-7.3125z"/>
  </symbol>
  <symbol id="j" overflow="visible">
   <path d="m3.7656-29.906h12.797c3.8008 0 6.7188 0.85156 8.75 2.5469 2.0391 1.6875 3.0625 4.0938 3.0625 7.2188 0 3.1367-1.0234 5.5469-3.0625 7.2344-2.0312 1.6875-4.9492 2.5312-8.75 2.5312h-5.0938v10.375h-7.7031zm7.7031 5.5938v8.3438h4.2656c1.5 0 2.6562-0.35938 3.4688-1.0781 0.8125-0.72656 1.2188-1.7578 1.2188-3.0938 0-1.3438-0.40625-2.375-1.2188-3.0938s-1.9688-1.0781-3.4688-1.0781z"/>
  </symbol>
  <symbol id="i" overflow="visible">
   <path d="m3.4375-22.438h7.1719v22.031c0 3.0078-0.72656 5.3047-2.1719 6.8906-1.4375 1.582-3.5234 2.375-6.25 2.375h-3.5469v-4.7188h1.2344c1.3633 0 2.2969-0.30859 2.7969-0.92188 0.50781-0.61719 0.76562-1.8242 0.76562-3.625zm0-8.7188h7.1719v5.8438h-7.1719z"/>
  </symbol>
 </defs>
 <g>
  <path d="m618.98 447.99c-6.0078-6.0039-13.133-10.781-20.973-14.055 13.766-15.227 19.605-36.016 15.781-56.184-3.8203-20.164-16.863-37.375-35.242-46.508-18.379-9.1367-39.977-9.1367-58.355-0.003907-18.379 9.1289-31.426 26.34-35.25 46.504l-105.95-105.94 84.117-84.113 60.898 60.898 29-29-60.898-60.898 34.801-34.801 49.293 49.293 29-29-49.293-49.293 65.898-65.898-29.008-28.988-242.77 242.77-242.83-242.77-28.969 29 65.898 65.898-49.293 49.293 29 29 49.293-49.293 34.801 34.801-60.898 60.898 29 29 60.898-60.898 84.07 84.102-105.96 105.96c-3.7617-20.23-16.801-37.523-35.211-46.715-18.414-9.1875-40.074-9.2031-58.5-0.046875-18.43 9.1602-31.492 26.434-35.285 46.66-3.7969 20.227 2.1211 41.062 15.977 56.277-20.152 8.457-34.77 26.398-38.984 47.844-4.2148 21.449 2.5234 43.586 17.977 59.043 15.453 15.457 37.59 22.207 59.039 17.996 21.445-4.207 39.391-18.82 47.855-38.973 15.223 13.789 36.027 19.648 56.207 15.832 20.184-3.8203 37.41-16.871 46.543-35.27 9.1367-18.395 9.125-40.008-0.03125-58.395-9.1602-18.383-26.398-31.418-46.586-35.211l105.96-105.96 105.96 105.96c-20.199 3.7773-37.461 16.809-46.629 35.203-9.168 18.391-9.1836 40.02-0.042969 58.422 9.1445 18.406 26.387 31.461 46.582 35.27 20.195 3.8047 41.008-2.0781 56.223-15.891 7.5859 18.102 22.879 31.859 41.684 37.492 18.801 5.6328 39.141 2.5547 55.43-8.3945 16.293-10.949 26.824-28.617 28.711-48.156 1.8867-19.539-5.0742-38.895-18.973-52.758zm-491.54-81.188c7.2109-7.2109 17.367-10.656 27.48-9.3242 10.113 1.3359 19.027 7.293 24.125 16.129 5.1016 8.832 5.8008 19.535 1.8945 28.957s-11.969 16.492-21.82 19.133c-9.8555 2.6367-20.371 0.54297-28.465-5.668-8.0898-6.2109-12.832-15.832-12.828-26.031-0.007812-8.7031 3.4492-17.047 9.6133-23.195zm23.195 150.79h-0.003906c-6.25 5.957-14.559 9.2812-23.195 9.2812-8.6406 0-16.945-3.3242-23.199-9.2812-6.1523-6.1523-9.6094-14.496-9.6094-23.199 0-8.6992 3.457-17.043 9.6094-23.195 6.1523-6.1523 14.496-9.6094 23.199-9.6094 8.6992 0 17.043 3.457 23.195 9.6094 6.1523 6.1523 9.6094 14.496 9.6094 23.195 0 8.7031-3.457 17.047-9.6094 23.199zm104.4-23.195c-6.1562 6.1523-14.5 9.6094-23.199 9.6094-8.6992 0-17.047-3.457-23.199-9.6094-6.1523-6.1523-9.6055-14.496-9.6055-23.199 0-8.6992 3.4531-17.043 9.6055-23.195s14.5-9.6094 23.199-9.6094c8.6992 0 17.043 3.457 23.199 9.6094 6.1289 6.1641 9.5703 14.504 9.5625 23.199-0.003906 8.6953-3.457 17.031-9.5977 23.188zm271.16-127.59c7.2148-7.2109 17.371-10.656 27.48-9.3242 10.113 1.3359 19.031 7.293 24.129 16.129 5.0977 8.832 5.7969 19.535 1.8945 28.957-3.9062 9.4219-11.973 16.492-21.824 19.133-9.8516 2.6367-20.371 0.54297-28.461-5.668-8.0898-6.2109-12.832-15.832-12.832-26.031-0.007813-8.7031 3.4531-17.047 9.6133-23.195zm-34.797 127.59c-6.1562 6.1523-14.5 9.6094-23.199 9.6094s-17.047-3.457-23.199-9.6094c-6.1523-6.1523-9.6055-14.496-9.6055-23.199 0-8.6992 3.4531-17.043 9.6055-23.195 6.1523-6.1523 14.5-9.6094 23.199-9.6094s17.043 3.457 23.199 9.6055c6.1367 6.1602 9.582 14.504 9.582 23.199 0 8.6992-3.4453 17.039-9.582 23.199zm104.36 23.195c-6.2539 5.957-14.559 9.2812-23.199 9.2812-8.6367 0-16.945-3.3242-23.195-9.2812-6.1523-6.1523-9.6094-14.496-9.6094-23.199 0-8.6992 3.457-17.043 9.6094-23.195 6.1523-6.1523 14.496-9.6094 23.195-9.6094 8.7031 0 17.047 3.457 23.199 9.6094 6.1523 6.1523 9.6094 14.496 9.6094 23.195 0 8.7031-3.457 17.047-9.6094 23.199z"/>
  <use x="61.832031" y="683.023438" xlink:href="#p"/>
  <use x="91.925781" y="683.023438" xlink:href="#e"/>
  <use x="112.148438" y="683.023438" xlink:href="#b"/>
  <use x="139.964844" y="683.023438" xlink:href="#d"/>
  <use x="167.636719" y="683.023438" xlink:href="#a"/>
  <use x="187.238281" y="683.023438" xlink:href="#b"/>
  <use x="215.050781" y="683.023438" xlink:href="#h"/>
  <use x="258.683594" y="683.023438" xlink:href="#c"/>
  <use x="288.039062" y="683.023438" xlink:href="#g"/>
  <use x="329.046875" y="683.023438" xlink:href="#f"/>
  <use x="366.929688" y="683.023438" xlink:href="#b"/>
  <use x="394.742188" y="683.023438" xlink:href="#c"/>
  <use x="424.097656" y="683.023438" xlink:href="#d"/>
  <use x="451.769531" y="683.023438" xlink:href="#e"/>
  <use x="471.992188" y="683.023438" xlink:href="#o"/>
  <use x="500.527344" y="683.023438" xlink:href="#n"/>
  <use x="61.832031" y="724.03125" xlink:href="#m"/>
  <use x="185.074219" y="724.03125" xlink:href="#a"/>
  <use x="204.679687" y="724.03125" xlink:href="#l"/>
  <use x="275.964844" y="724.03125" xlink:href="#k"/>
  <use x="411.121094" y="724.03125" xlink:href="#j"/>
  <use x="489.574219" y="724.03125" xlink:href="#i"/>
  <use x="555.75" y="724.03125" xlink:href="#a"/>
 </g>
</svg>
